<?xml version="1.0" standalone="no"?>
<!DOCTYPE svg PUBLIC "-//W3C//DTD SVG 20010904//EN"
 "http://www.w3.org/TR/2001/REC-SVG-20010904/DTD/svg10.dtd">
<svg version="1.0" xmlns="http://www.w3.org/2000/svg"
 width="30.000000pt" height="26.000000pt" viewBox="0 0 30.000000 26.000000"
 preserveAspectRatio="xMidYMid meet">

<g transform="translate(0.000000,26.000000) scale(0.100000,-0.100000)"
fill="currentColor" stroke="none">
<path d="M171 231 c-12 -12 -21 -28 -21 -36 0 -23 -43 -18 -84 10 -20 14 -39
25 -42 25 -2 0 -3 -21 -1 -47 5 -49 26 -100 48 -113 16 -11 2 -30 -22 -30 -30
0 -22 -18 11 -25 91 -20 192 49 205 139 4 25 11 49 16 51 13 9 -1 34 -19 34
-9 0 -29 3 -44 6 -19 5 -32 1 -47 -14z"/>
</g>
</svg>
