<?xml version="1.0" standalone="no"?>
<!DOCTYPE svg PUBLIC "-//W3C//DTD SVG 20010904//EN"
 "http://www.w3.org/TR/2001/REC-SVG-20010904/DTD/svg10.dtd">
<svg version="1.0" xmlns="http://www.w3.org/2000/svg"
 width="27.000000pt" height="26.000000pt" viewBox="0 0 27.000000 26.000000"
 preserveAspectRatio="xMidYMid meet">

<g transform="translate(0.000000,26.000000) scale(0.100000,-0.100000)"
fill="currentColor" stroke="none">
<path d="M130 231 c0 -46 -47 -51 -63 -7 -2 5 -11 6 -21 3 -12 -5 -17 -14 -13
-27 3 -13 -1 -24 -14 -30 -30 -16 -24 -40 10 -40 38 0 49 -35 19 -60 -26 -21
-15 -44 17 -36 17 4 24 1 28 -14 3 -11 12 -20 21 -20 16 0 20 10 17 41 -3 27
41 32 60 7 20 -26 43 -15 36 17 -3 17 1 25 15 29 28 7 19 41 -11 41 -32 0 -49
41 -20 50 28 9 20 40 -10 40 -12 0 -27 8 -32 18 -16 28 -39 21 -39 -12z m28
-95 c4 -19 -13 -36 -35 -36 -18 0 -27 41 -12 51 21 13 43 6 47 -15z"/>
</g>
</svg>
