<?xml version="1.0" standalone="no"?>
<!DOCTYPE svg PUBLIC "-//W3C//DTD SVG 20010904//EN"
 "http://www.w3.org/TR/2001/REC-SVG-20010904/DTD/svg10.dtd">
<svg version="1.0" xmlns="http://www.w3.org/2000/svg"
 width="27.000000pt" height="27.000000pt" viewBox="0 0 27.000000 27.000000"
 preserveAspectRatio="xMidYMid meet">

<g transform="translate(0.000000,27.000000) scale(0.100000,-0.100000)"
fill="currentColor" stroke="none">
<path d="M4 247 c-2 -7 -3 -65 -2 -128 l3 -114 125 0 125 0 0 125 0 125 -123
3 c-95 2 -124 0 -128 -11z m193 -51 c37 -32 39 -93 4 -130 -31 -32 -37 -32
-44 -1 -3 18 1 29 14 36 13 7 19 21 19 44 l0 35 -54 0 c-53 0 -55 -1 -61 -32
-6 -26 -3 -34 16 -49 27 -21 19 -25 -14 -8 -17 8 -16 5 6 -13 15 -13 27 -27
27 -31 0 -15 -22 -6 -45 18 -35 34 -35 96 0 130 33 34 93 34 132 1z"/>
</g>
</svg>
